<svg id="Layer_5" enable-background="new 0 0 64 64" height="512" viewBox="0 0 64 64" width="512" xmlns="http://www.w3.org/2000/svg" xmlns:xlink="http://www.w3.org/1999/xlink"><linearGradient id="SVGID_1_" gradientUnits="userSpaceOnUse" x1="32" x2="32" y1="63" y2="1"><stop offset="0" stop-color="#9f2fff"/><stop offset="1" stop-color="#0bb1d3"/></linearGradient><path d="m49.764 11c-1.605-1.263-3.616-2-5.764-2s-4.159.737-5.764 2h-.236c-4.962 0-9 4.037-9 9 0 2.472 1.809 4.517 4.215 4.916.817 3.481 3.941 6.084 7.668 6.084h6.234c3.725 0 6.848-2.6 7.666-6.079 2.384-.38 4.217-2.433 4.217-4.921 0-4.963-4.038-9-9-9zm-18.764 9c0-3.23 2.202-5.949 5.182-6.752-.423.653-.774 1.364-1.028 2.128l-1.75 5.248c-.237.712-.353 1.451-.381 2.199-1.173-.407-2.023-1.512-2.023-2.823zm9.883 9c-1.318 0-2.532-.441-3.514-1.176.647-1.984 2.121-3.563 4.047-4.327.52.894 1.477 1.503 2.584 1.503 1.106 0 2.063-.608 2.584-1.502 1.926.763 3.401 2.342 4.048 4.326-.983.735-2.197 1.176-3.515 1.176zm2.117-7c0-.552.449-1 1-1s1 .448 1 1-.449 1-1 1-1-.448-1-1zm9.126 4.187c-1.02-2.185-2.869-3.868-5.175-4.669-.232-1.425-1.462-2.518-2.951-2.518s-2.718 1.093-2.951 2.517c-2.307.801-4.156 2.485-5.175 4.669-.551-.894-.874-1.943-.874-3.069 0-.634.102-1.26.302-1.86l1.75-5.248c.998-2.996 3.79-5.009 6.948-5.009s5.95 2.013 6.949 5.009l1.75 5.248c.2.601.302 1.227.302 1.86-.001 1.126-.324 2.175-.875 3.07zm4.874-6.187c0 1.311-.85 2.416-2.024 2.823-.028-.748-.144-1.487-.381-2.199l-1.75-5.248c-.255-.764-.605-1.475-1.028-2.128 2.981.803 5.183 3.522 5.183 6.752zm-15-4c0 .552-.448 1-1 1s-1-.448-1-1 .448-1 1-1 1 .448 1 1zm6 0c0 .552-.448 1-1 1s-1-.448-1-1 .448-1 1-1 1 .448 1 1zm-4-15c-10.477 0-19 8.523-19 19 0 6.306 3.101 11.889 7.844 15.347-.598.333-1.244.577-1.927.696l-6.993 1.216c-6.33 1.1-10.924 6.563-10.924 12.988 0 1.413.245 2.778.665 4.076-2.787-1.231-4.665-4.002-4.665-7.182 0-2.813 1.518-5.428 3.96-6.823l1.959-1.119c.667-.382 1.081-1.095 1.081-1.864 0-.626-.272-1.22-.748-1.628-.476-.407-1.102-.587-1.723-.492l-.727.111c-6.839 1.052-11.802 6.838-11.802 13.756 0 7.675 6.243 13.918 13.917 13.918h6.796 1.287 21v-2c0-2.6-2.002-4.718-4.541-4.954 1.995-1.242 3.651-3.029 4.753-5.233l.406-.813h.456l.753 9.795c.138 1.797 1.659 3.205 3.462 3.205h4.239c1.914 0 3.472-1.558 3.472-3.472 0-1.324-.735-2.515-1.92-3.106l-1.266-.633c-.502-.251-.814-.756-.814-1.317v-11.845c0-1.874-.265-3.73-.758-5.534 6.354-3.077 10.758-9.572 10.758-17.093 0-10.477-8.523-19-19-19zm-41 48.082c0-5.924 4.25-10.878 10.105-11.779l.727-.111c.043-.004.083.004.118.034.033.028.05.065.05.109 0 .053-.028.102-.073.127l-1.959 1.119c-3.065 1.751-4.968 5.03-4.968 8.56 0 4.662 3.217 8.622 7.715 9.616.945 1.664 2.269 3.106 3.885 4.244h-3.683c-6.571-.001-11.917-5.348-11.917-11.919zm48-6.455v11.845c0 1.324.735 2.515 1.92 3.106l1.266.633c.502.251.814.756.814 1.317 0 .812-.661 1.472-1.472 1.472h-4.239c-.765 0-1.409-.597-1.468-1.359l-.895-11.641h-3.544l-.959 1.919c-1.876 3.751-5.646 6.081-9.84 6.081h-1.583v-1c0-3.521-2.612-6.442-6-6.929v-4.071h-2v6h1c2.757 0 5 2.243 5 5v3h2 1.583 6.417c1.654 0 3 1.346 3 3h-19-.713l-2.03-1.269c-3.292-2.057-5.257-5.603-5.257-9.484 0-5.45 3.897-10.084 9.267-11.018l6.993-1.216c1.246-.217 2.407-.733 3.417-1.477 2.758 1.562 5.935 2.464 9.323 2.464 2.242 0 4.385-.411 6.384-1.127.402 1.553.616 3.146.616 4.754zm-7-5.627c-5.613 0-10.585-2.746-13.682-6.953 3.874 3.083 8.833 4.953 13.682 4.953s9.808-1.87 13.682-4.953c-3.097 4.207-8.069 6.953-13.682 6.953zm16.482-12.909c-3.491 5.333-10.092 8.909-16.482 8.909s-12.991-3.576-16.482-8.909c-.326-1.313-.518-2.678-.518-4.091 0-9.374 7.626-17 17-17s17 7.626 17 17c0 1.413-.192 2.778-.518 4.091zm-12.033-16.311c-.583-.212-1.183-.383-1.784-.507l.406-1.959c.695.145 1.388.342 2.061.585zm-9.092.073-.715-1.867c.665-.255 1.354-.463 2.051-.619l.438 1.951c-.602.135-1.199.315-1.774.535zm3.608-.813-.154-1.994c.705-.056 1.429-.061 2.139-.016l-.126 1.996c-.615-.039-1.247-.033-1.859.014zm-23.172 46.502-1.778.916c-.664-1.289-1.015-2.745-1.015-4.211 0-2.152.757-4.243 2.13-5.888l1.535 1.281c-1.074 1.287-1.665 2.922-1.665 4.607 0 1.149.274 2.288.793 3.295zm2.332 2.633-1.129 1.65c-.897-.613-1.67-1.368-2.295-2.244l1.628-1.162c.487.684 1.092 1.274 1.796 1.756zm8.875-4.175h2v2h-2zm8-6h2c0 3.514-2.35 6.667-5.715 7.668l-.57-1.916c2.523-.751 4.285-3.116 4.285-5.752z" fill="url(#SVGID_1_)"/></svg>